<svg xmlns="http://www.w3.org/2000/svg" viewBox="0 0 64 64" shape-rendering="crispEdges">
  <rect width="64" height="64" fill="none"/>
  <rect x="18" y="14" width="4" height="6" fill="#7d5229"/>
  <rect x="22" y="20" width="4" height="6" fill="#8e6234"/>
  <rect x="26" y="26" width="4" height="6" fill="#a2753f"/>
  <rect x="30" y="32" width="4" height="6" fill="#b7874d"/>
  <rect x="26" y="38" width="4" height="6" fill="#a2753f"/>
  <rect x="22" y="44" width="4" height="6" fill="#8e6234"/>
  <rect x="18" y="50" width="4" height="6" fill="#7d5229"/>
  <rect x="36" y="14" width="4" height="6" fill="#7d5229"/>
  <rect x="40" y="20" width="4" height="6" fill="#8e6234"/>
  <rect x="44" y="26" width="4" height="6" fill="#a2753f"/>
  <rect x="48" y="32" width="4" height="6" fill="#b7874d"/>
  <rect x="44" y="38" width="4" height="6" fill="#a2753f"/>
  <rect x="40" y="44" width="4" height="6" fill="#8e6234"/>
  <rect x="36" y="50" width="4" height="6" fill="#7d5229"/>
  <rect x="32" y="16" width="2" height="40" fill="#dfe8ec"/>
  <rect x="20" y="30" width="28" height="2" fill="#dfe8ec"/>
  <rect x="48" y="28" width="6" height="2" fill="#c7d0d6"/>
  <rect x="54" y="26" width="4" height="6" fill="#eef5f8"/>
  <rect x="18" y="28" width="4" height="2" fill="#58a860"/>
  <rect x="18" y="32" width="4" height="2" fill="#58a860"/>
  <rect x="50" y="30" width="2" height="2" fill="#d7b15a"/>
</svg>
