<svg xmlns="http://www.w3.org/2000/svg" viewBox="0 0 64 64" shape-rendering="crispEdges">
  <rect width="64" height="64" fill="none"/>
  <rect x="16" y="14" width="8" height="4" fill="#174a34"/>
  <rect x="24" y="14" width="8" height="4" fill="#1f6b4b"/>
  <rect x="32" y="14" width="8" height="4" fill="#1f6b4b"/>
  <rect x="40" y="14" width="8" height="4" fill="#174a34"/>
  <rect x="14" y="18" width="4" height="28" fill="#8f6b2f"/>
  <rect x="18" y="18" width="12" height="24" fill="#2c8a5d"/>
  <rect x="30" y="18" width="4" height="24" fill="#d6c27a"/>
  <rect x="34" y="18" width="12" height="24" fill="#2c8a5d"/>
  <rect x="46" y="18" width="4" height="28" fill="#8f6b2f"/>
  <rect x="18" y="42" width="12" height="4" fill="#174a34"/>
  <rect x="34" y="42" width="12" height="4" fill="#174a34"/>
  <rect x="26" y="24" width="4" height="12" fill="#f5e6a8"/>
  <rect x="22" y="28" width="12" height="4" fill="#f5e6a8"/>
  <rect x="36" y="24" width="4" height="4" fill="#f8f1c9"/>
  <rect x="40" y="28" width="4" height="4" fill="#f8f1c9"/>
  <rect x="36" y="32" width="4" height="4" fill="#f8f1c9"/>
</svg>
